<svg xmlns="http://www.w3.org/2000/svg" viewBox="0 0 64 64" aria-labelledby="title"
aria-describedby="desc" role="img" xmlns:xlink="http://www.w3.org/1999/xlink">
  <title>Copied To Clipboard</title>
  <desc>A line styled icon from Orion Icon Library.</desc>
  <path data-name="layer2"
  d="M35.4 58H4a2 2 0 0 1-2-2V10a2 2 0 0 1 2-2h9.9M34 8h10a2 2 0 0 1 2 2v20"
  fill="none" stroke="#202020" stroke-miterlimit="10" stroke-width="2" stroke-linejoin="round"
  stroke-linecap="round"></path>
  <path data-name="layer2" d="M32 6h-3.1a5 5 0 0 0-9.8 0H16a2 2 0 0 0-2 2v6h20V8a2 2 0 0 0-2-2zm6 26.1V14h-4m-20 0h-4v36h20.5M18 22h12M18 32h12M18 42h12"
  fill="none" stroke="#202020" stroke-miterlimit="10" stroke-width="2" stroke-linejoin="round"
  stroke-linecap="round"></path>
  <circle data-name="layer1" cx="46" cy="46" r="16" fill="none" stroke="#202020"
  stroke-miterlimit="10" stroke-width="2" stroke-linejoin="round" stroke-linecap="round"></circle>
  <path data-name="layer1" fill="none" stroke="#202020" stroke-miterlimit="10"
  stroke-width="2" d="M53 42l-8 9-5-5" stroke-linejoin="round" stroke-linecap="round"></path>
</svg>