<svg xmlns="http://www.w3.org/2000/svg" viewBox="0 0 64 64" aria-labelledby="title"
aria-describedby="desc" role="img" xmlns:xlink="http://www.w3.org/1999/xlink">
  <title>Facebook Like</title>
  <desc>A line styled icon from Orion Icon Library.</desc>
  <path data-name="layer2"
  d="M62 29.234c0-2.438-2.719-3.562-3.562-3.562H40.062s1.781-7.781 1.875-10.5-2.625-8.531-3.188-9-3.469-1.031-4.781.469c.094 2.062.375 8.438.375 8.438s-4.313 7.687-6.75 11.531a20.025 20.025 0 0 1-5.625 5.719v19.405h1.687c.563 0 2.719 1.969 4.313 1.969h22.876c1.969 0 5.25-.188 5.25-3.375a3.081 3.081 0 0 0-1.313-2.628v-.375s3.188-1.031 3.188-3.844a2.818 2.818 0 0 0-1.313-2.344l.188-.75s3-1.125 3-3.938c0-1.781-1.219-2.063-1.219-2.063l.188-.844C59 33.359 62 32.14 62 29.234z"
  fill="none" stroke="#202020" stroke-linecap="round" stroke-miterlimit="10"
  stroke-width="2" stroke-linejoin="round"></path>
  <path data-name="layer1" d="M15.969 29.7H5a2.962 2.962 0 0 0-3 3l1.969 19.971a2.962 2.962 0 0 0 3 3h9a2.962 2.962 0 0 0 3-3V32.7a3.021 3.021 0 0 0-3-3z"
  fill="none" stroke="#202020" stroke-linecap="round" stroke-miterlimit="10"
  stroke-width="2" stroke-linejoin="round"></path>
</svg>